G04*
G04 #@! TF.GenerationSoftware,Altium Limited,Altium Designer,21.2.2 (38)*
G04*
G04 Layer_Color=8421504*
%FSLAX25Y25*%
%MOIN*%
G70*
G04*
G04 #@! TF.SameCoordinates,88AEB5F1-5359-4116-BBE0-5A4BCC55C554*
G04*
G04*
G04 #@! TF.FilePolarity,Positive*
G04*
G01*
G75*
%ADD16R,0.03740X0.03543*%
%ADD17R,0.02756X0.03347*%
%ADD18R,0.10646X0.05719*%
%ADD19R,0.03347X0.02756*%
%ADD20R,0.02362X0.06102*%
%ADD21R,0.02559X0.03543*%
%ADD22R,0.03543X0.03740*%
%ADD23R,0.03740X0.03740*%
%ADD24R,0.03740X0.03740*%
%ADD25R,0.01575X0.05315*%
D16*
X78000Y73500D02*
D03*
Y67398D02*
D03*
X72000Y73602D02*
D03*
Y67500D02*
D03*
X47500Y72051D02*
D03*
Y65949D02*
D03*
D17*
X12154Y72500D02*
D03*
X18846D02*
D03*
X81693Y86500D02*
D03*
X75000D02*
D03*
X16307Y66000D02*
D03*
X23000D02*
D03*
X81693Y80000D02*
D03*
X75000D02*
D03*
D18*
X45000Y126500D02*
D03*
Y136148D02*
D03*
X20000Y126500D02*
D03*
Y136148D02*
D03*
D19*
X38000Y110500D02*
D03*
Y117193D02*
D03*
X31500Y110500D02*
D03*
Y117193D02*
D03*
X66000Y70693D02*
D03*
Y64000D02*
D03*
X41500Y65500D02*
D03*
Y72193D02*
D03*
D20*
X25000Y103630D02*
D03*
X30000D02*
D03*
X35000D02*
D03*
X40000D02*
D03*
X45000D02*
D03*
X50000D02*
D03*
X55000D02*
D03*
Y82370D02*
D03*
X50000D02*
D03*
X45000D02*
D03*
X40000D02*
D03*
X35000D02*
D03*
X30000D02*
D03*
X25000D02*
D03*
X79500Y35500D02*
D03*
X74500D02*
D03*
X69500D02*
D03*
X64500D02*
D03*
X59500D02*
D03*
X54500D02*
D03*
X49500D02*
D03*
Y56760D02*
D03*
X54500D02*
D03*
X59500D02*
D03*
X64500D02*
D03*
X69500D02*
D03*
X74500D02*
D03*
X79500D02*
D03*
D21*
X50854Y113500D02*
D03*
X45146D02*
D03*
D22*
X24949Y72500D02*
D03*
X31051D02*
D03*
X29500Y66000D02*
D03*
X35602D02*
D03*
D23*
X11000Y95453D02*
D03*
Y89547D02*
D03*
X17500Y95453D02*
D03*
Y89547D02*
D03*
X93500Y43547D02*
D03*
Y49453D02*
D03*
X87000Y43547D02*
D03*
Y49453D02*
D03*
D24*
X49047Y28000D02*
D03*
X54953D02*
D03*
D25*
X82318Y16326D02*
D03*
X79759D02*
D03*
X77200D02*
D03*
X74641D02*
D03*
X72082D02*
D03*
M02*
