G04*
G04 #@! TF.GenerationSoftware,Altium Limited,Altium Designer,21.2.2 (38)*
G04*
G04 Layer_Color=8388736*
%FSLAX25Y25*%
%MOIN*%
G70*
G04*
G04 #@! TF.SameCoordinates,88AEB5F1-5359-4116-BBE0-5A4BCC55C554*
G04*
G04*
G04 #@! TF.FilePolarity,Negative*
G04*
G01*
G75*
%ADD18R,0.10646X0.05719*%
%ADD20R,0.02362X0.06102*%
%ADD21R,0.02559X0.03543*%
%ADD26R,0.04540X0.04343*%
%ADD27R,0.03556X0.04147*%
%ADD28R,0.04147X0.03556*%
%ADD29R,0.04343X0.04540*%
%ADD30R,0.04540X0.04540*%
%ADD31R,0.04540X0.04540*%
%ADD32R,0.02375X0.06115*%
G04:AMPARAMS|DCode=33|XSize=125.98mil|YSize=62.99mil|CornerRadius=31.5mil|HoleSize=0mil|Usage=FLASHONLY|Rotation=180.000|XOffset=0mil|YOffset=0mil|HoleType=Round|Shape=RoundedRectangle|*
%AMROUNDEDRECTD33*
21,1,0.12598,0.00000,0,0,180.0*
21,1,0.06299,0.06299,0,0,180.0*
1,1,0.06299,-0.03150,0.00000*
1,1,0.06299,0.03150,0.00000*
1,1,0.06299,0.03150,0.00000*
1,1,0.06299,-0.03150,0.00000*
%
%ADD33ROUNDEDRECTD33*%
%ADD34R,0.12598X0.06299*%
G04:AMPARAMS|DCode=35|XSize=62.99mil|YSize=125.98mil|CornerRadius=31.5mil|HoleSize=0mil|Usage=FLASHONLY|Rotation=180.000|XOffset=0mil|YOffset=0mil|HoleType=Round|Shape=RoundedRectangle|*
%AMROUNDEDRECTD35*
21,1,0.06299,0.06299,0,0,180.0*
21,1,0.00000,0.12598,0,0,180.0*
1,1,0.06299,0.00000,0.03150*
1,1,0.06299,0.00000,0.03150*
1,1,0.06299,0.00000,-0.03150*
1,1,0.06299,0.00000,-0.03150*
%
%ADD35ROUNDEDRECTD35*%
%ADD36R,0.07887X0.07887*%
%ADD37C,0.07887*%
%ADD38C,0.07296*%
%ADD39R,0.07296X0.07296*%
%ADD40R,0.07887X0.07887*%
%ADD41O,0.06115X0.08674*%
%ADD42O,0.04934X0.05721*%
%ADD43C,0.05800*%
D18*
X45000Y126500D02*
D03*
Y136148D02*
D03*
X20000Y126500D02*
D03*
Y136148D02*
D03*
D20*
X25000Y103630D02*
D03*
X30000D02*
D03*
X35000D02*
D03*
X40000D02*
D03*
X45000D02*
D03*
X50000D02*
D03*
X55000D02*
D03*
Y82370D02*
D03*
X50000D02*
D03*
X45000D02*
D03*
X40000D02*
D03*
X35000D02*
D03*
X30000D02*
D03*
X25000D02*
D03*
X79500Y35500D02*
D03*
X74500D02*
D03*
X69500D02*
D03*
X64500D02*
D03*
X59500D02*
D03*
X54500D02*
D03*
X49500D02*
D03*
Y56760D02*
D03*
X54500D02*
D03*
X59500D02*
D03*
X64500D02*
D03*
X69500D02*
D03*
X74500D02*
D03*
X79500D02*
D03*
D21*
X50854Y113500D02*
D03*
X45146D02*
D03*
D26*
X78000Y73500D02*
D03*
Y67398D02*
D03*
X72000Y73602D02*
D03*
Y67500D02*
D03*
X47500Y72051D02*
D03*
Y65949D02*
D03*
D27*
X12154Y72500D02*
D03*
X18846D02*
D03*
X81693Y86500D02*
D03*
X75000D02*
D03*
X16307Y66000D02*
D03*
X23000D02*
D03*
X81693Y80000D02*
D03*
X75000D02*
D03*
D28*
X38000Y110500D02*
D03*
Y117193D02*
D03*
X31500Y110500D02*
D03*
Y117193D02*
D03*
X66000Y70693D02*
D03*
Y64000D02*
D03*
X41500Y65500D02*
D03*
Y72193D02*
D03*
D29*
X24949Y72500D02*
D03*
X31051D02*
D03*
X29500Y66000D02*
D03*
X35602D02*
D03*
D30*
X11000Y95453D02*
D03*
Y89547D02*
D03*
X17500Y95453D02*
D03*
Y89547D02*
D03*
X93500Y43547D02*
D03*
Y49453D02*
D03*
X87000Y43547D02*
D03*
Y49453D02*
D03*
D31*
X49047Y28000D02*
D03*
X54953D02*
D03*
D32*
X82318Y16326D02*
D03*
X79759D02*
D03*
X77200D02*
D03*
X74641D02*
D03*
X72082D02*
D03*
D33*
X21500Y32469D02*
D03*
D34*
Y56090D02*
D03*
D35*
X40004Y44280D02*
D03*
D36*
X65500Y83000D02*
D03*
X32500Y145500D02*
D03*
X7500Y146000D02*
D03*
D37*
X65500Y93000D02*
D03*
X32500Y135500D02*
D03*
Y125500D02*
D03*
X7500Y136000D02*
D03*
Y126000D02*
D03*
X16000Y105000D02*
D03*
D38*
X86500Y111500D02*
D03*
X76500D02*
D03*
D39*
X66500D02*
D03*
D40*
X6000Y105000D02*
D03*
D41*
X91029Y5794D02*
D03*
X63371D02*
D03*
D42*
X86747Y17605D02*
D03*
X67653D02*
D03*
D43*
X60500Y74500D02*
D03*
X13500Y82000D02*
D03*
X3500Y95000D02*
D03*
M02*
