G04*
G04 #@! TF.GenerationSoftware,Altium Limited,Altium Designer,21.2.2 (38)*
G04*
G04 Layer_Color=32896*
%FSLAX25Y25*%
%MOIN*%
G70*
G04*
G04 #@! TF.SameCoordinates,88AEB5F1-5359-4116-BBE0-5A4BCC55C554*
G04*
G04*
G04 #@! TF.FilePolarity,Positive*
G04*
G01*
G75*
%ADD14C,0.01000*%
D14*
X93461Y61500D02*
X88462D01*
Y64832D01*
X93461Y69831D02*
Y66498D01*
X88462D01*
Y69831D01*
X90961Y66498D02*
Y68164D01*
X93461Y71497D02*
X88462D01*
Y73996D01*
X89295Y74829D01*
X92628D01*
X93461Y73996D01*
Y71497D01*
Y81494D02*
X88462D01*
Y83993D01*
X89295Y84826D01*
X92628D01*
X93461Y83993D01*
Y81494D01*
X91795Y86492D02*
X88462D01*
X90128D01*
X90961Y87325D01*
X91795Y88158D01*
Y88991D01*
X88462Y91490D02*
Y93156D01*
Y92323D01*
X91795D01*
Y91490D01*
Y95656D02*
X88462Y97322D01*
X91795Y98988D01*
X88462Y103153D02*
Y101487D01*
X89295Y100654D01*
X90961D01*
X91795Y101487D01*
Y103153D01*
X90961Y103986D01*
X90128D01*
Y100654D01*
X91795Y105652D02*
X88462D01*
X90128D01*
X90961Y106485D01*
X91795Y107318D01*
Y108151D01*
X93461Y115649D02*
X88462D01*
Y118148D01*
X89295Y118981D01*
X90128D01*
X90961Y118148D01*
Y115649D01*
Y118148D01*
X91795Y118981D01*
X92628D01*
X93461Y118148D01*
Y115649D01*
X88462Y121481D02*
Y123147D01*
X89295Y123980D01*
X90961D01*
X91795Y123147D01*
Y121481D01*
X90961Y120648D01*
X89295D01*
X88462Y121481D01*
X91795Y126479D02*
Y128145D01*
X90961Y128978D01*
X88462D01*
Y126479D01*
X89295Y125646D01*
X90128Y126479D01*
Y128978D01*
X91795Y130644D02*
X88462D01*
X90128D01*
X90961Y131477D01*
X91795Y132310D01*
Y133143D01*
X93461Y138975D02*
X88462D01*
Y136476D01*
X89295Y135643D01*
X90961D01*
X91795Y136476D01*
Y138975D01*
X85063Y61500D02*
X81730D01*
X80064Y63166D01*
X81730Y64832D01*
X85063D01*
X80064Y66498D02*
Y68164D01*
Y67331D01*
X85063D01*
X84229Y66498D01*
X71666Y61500D02*
X74998D01*
X76665Y63166D01*
X74998Y64832D01*
X71666D01*
X74165D01*
Y61500D01*
X75831Y74829D02*
X76665Y73996D01*
Y72330D01*
X75831Y71497D01*
X74998D01*
X74165Y72330D01*
Y73996D01*
X73332Y74829D01*
X72499D01*
X71666Y73996D01*
Y72330D01*
X72499Y71497D01*
X75831Y77328D02*
X74998D01*
Y76495D01*
Y78161D01*
Y77328D01*
X72499D01*
X71666Y78161D01*
Y83160D02*
Y81494D01*
X72499Y80660D01*
X74165D01*
X74998Y81494D01*
Y83160D01*
X74165Y83993D01*
X73332D01*
Y80660D01*
X71666Y85659D02*
Y87325D01*
Y86492D01*
X74998D01*
Y85659D01*
X71666Y89824D02*
X74998D01*
Y92323D01*
X74165Y93156D01*
X71666D01*
Y94823D02*
Y96489D01*
Y95656D01*
X74998D01*
Y94823D01*
X70000Y100654D02*
Y101487D01*
X70833Y102320D01*
X74998D01*
Y99821D01*
X74165Y98988D01*
X72499D01*
X71666Y99821D01*
Y102320D01*
M02*
