G04*
G04 #@! TF.GenerationSoftware,Altium Limited,Altium Designer,21.2.2 (38)*
G04*
G04 Layer_Physical_Order=2*
G04 Layer_Color=16711680*
%FSLAX25Y25*%
%MOIN*%
G70*
G04*
G04 #@! TF.SameCoordinates,88AEB5F1-5359-4116-BBE0-5A4BCC55C554*
G04*
G04*
G04 #@! TF.FilePolarity,Positive*
G04*
G01*
G75*
G04:AMPARAMS|DCode=33|XSize=125.98mil|YSize=62.99mil|CornerRadius=31.5mil|HoleSize=0mil|Usage=FLASHONLY|Rotation=180.000|XOffset=0mil|YOffset=0mil|HoleType=Round|Shape=RoundedRectangle|*
%AMROUNDEDRECTD33*
21,1,0.12598,0.00000,0,0,180.0*
21,1,0.06299,0.06299,0,0,180.0*
1,1,0.06299,-0.03150,0.00000*
1,1,0.06299,0.03150,0.00000*
1,1,0.06299,0.03150,0.00000*
1,1,0.06299,-0.03150,0.00000*
%
%ADD33ROUNDEDRECTD33*%
%ADD34R,0.12598X0.06299*%
G04:AMPARAMS|DCode=35|XSize=62.99mil|YSize=125.98mil|CornerRadius=31.5mil|HoleSize=0mil|Usage=FLASHONLY|Rotation=180.000|XOffset=0mil|YOffset=0mil|HoleType=Round|Shape=RoundedRectangle|*
%AMROUNDEDRECTD35*
21,1,0.06299,0.06299,0,0,180.0*
21,1,0.00000,0.12598,0,0,180.0*
1,1,0.06299,0.00000,0.03150*
1,1,0.06299,0.00000,0.03150*
1,1,0.06299,0.00000,-0.03150*
1,1,0.06299,0.00000,-0.03150*
%
%ADD35ROUNDEDRECTD35*%
%ADD44C,0.02000*%
%ADD45C,0.04000*%
%ADD46R,0.07087X0.07087*%
%ADD47C,0.07087*%
%ADD48C,0.06496*%
%ADD49R,0.06496X0.06496*%
%ADD50R,0.07087X0.07087*%
%ADD51O,0.05315X0.07874*%
%ADD52O,0.04134X0.04921*%
%ADD53C,0.05000*%
G36*
X27957Y145236D02*
X23000Y140279D01*
X15140Y148140D01*
X14513Y148620D01*
X13783Y148923D01*
X13197Y149000D01*
X13229Y149500D01*
X27957D01*
Y145236D01*
D02*
G37*
G36*
X92000Y149347D02*
Y11140D01*
X91529Y10726D01*
Y5794D01*
X91029D01*
Y5294D01*
X87340D01*
Y4515D01*
X87407Y4000D01*
X86969Y3500D01*
X67431D01*
X66992Y4000D01*
X67060Y4515D01*
Y5294D01*
X63371D01*
X59682D01*
Y4515D01*
X59750Y4000D01*
X59311Y3500D01*
X3500D01*
X3000Y3000D01*
X2500Y3500D01*
Y91234D01*
X2897Y91538D01*
X3000Y91510D01*
Y95000D01*
Y98489D01*
X2897Y98462D01*
X2500Y98766D01*
Y100457D01*
X10543D01*
Y109543D01*
X2500D01*
Y125174D01*
X3000Y125240D01*
X3266Y124246D01*
X3864Y123210D01*
X4710Y122364D01*
X5746Y121766D01*
X6902Y121457D01*
X7000D01*
Y126000D01*
Y130543D01*
X6902D01*
X5746Y130234D01*
X4710Y129636D01*
X3864Y128790D01*
X3266Y127754D01*
X3000Y126760D01*
X2500Y126826D01*
Y135174D01*
X3000Y135240D01*
X3266Y134246D01*
X3864Y133210D01*
X4710Y132364D01*
X5746Y131766D01*
X6902Y131457D01*
X8098D01*
X9254Y131766D01*
X10290Y132364D01*
X11135Y133210D01*
X11734Y134246D01*
X12043Y135402D01*
Y136598D01*
X11734Y137754D01*
X11135Y138790D01*
X10290Y139636D01*
X9254Y140234D01*
X8098Y140543D01*
X6902D01*
X5746Y140234D01*
X4710Y139636D01*
X3864Y138790D01*
X3266Y137754D01*
X3000Y136760D01*
X2500Y136826D01*
Y141352D01*
X2957Y141457D01*
Y141457D01*
X12043D01*
Y142024D01*
X12505Y142216D01*
X19974Y134747D01*
Y108485D01*
Y108158D01*
X19474Y107951D01*
X18790Y108635D01*
X17754Y109234D01*
X16598Y109543D01*
X15402D01*
X14246Y109234D01*
X13210Y108635D01*
X12365Y107790D01*
X11766Y106754D01*
X11457Y105598D01*
Y104402D01*
X11766Y103246D01*
X12365Y102210D01*
X13210Y101365D01*
X14246Y100766D01*
X15402Y100457D01*
X16598D01*
X17754Y100766D01*
X18790Y101365D01*
X19474Y102049D01*
X19974Y101842D01*
Y91687D01*
X13787Y85500D01*
X13039D01*
X12149Y85261D01*
X11351Y84801D01*
X10699Y84149D01*
X10238Y83351D01*
X10000Y82461D01*
Y81539D01*
X10238Y80649D01*
X10699Y79851D01*
X11351Y79199D01*
X12149Y78738D01*
X13039Y78500D01*
X13961D01*
X14851Y78738D01*
X15649Y79199D01*
X15844Y79394D01*
X16270Y79571D01*
X16897Y80052D01*
X25140Y88294D01*
X25140Y88294D01*
X25620Y88921D01*
X25923Y89651D01*
X26026Y90434D01*
Y108627D01*
X26860Y109461D01*
X57569D01*
X57918Y108961D01*
X57917Y108957D01*
Y76867D01*
X57699Y76649D01*
X57239Y75851D01*
X57000Y74961D01*
Y74039D01*
X57239Y73149D01*
X57699Y72351D01*
X58351Y71699D01*
X59149Y71238D01*
X60039Y71000D01*
X60961D01*
X61851Y71238D01*
X62649Y71699D01*
X63301Y72351D01*
X63762Y73149D01*
X64000Y74039D01*
Y74961D01*
X63762Y75851D01*
X63301Y76649D01*
X62649Y77301D01*
X61996Y77678D01*
Y78457D01*
X70043D01*
Y87543D01*
X61996D01*
Y89426D01*
X62458Y89617D01*
X62710Y89364D01*
X63746Y88766D01*
X64902Y88457D01*
X66098D01*
X67254Y88766D01*
X68290Y89364D01*
X69135Y90210D01*
X69734Y91246D01*
X70043Y92402D01*
Y93598D01*
X69734Y94754D01*
X69135Y95790D01*
X68290Y96636D01*
X67254Y97234D01*
X66098Y97543D01*
X64902D01*
X63746Y97234D01*
X62710Y96636D01*
X62458Y96383D01*
X61996Y96574D01*
Y106858D01*
X62252Y107252D01*
X70748D01*
Y115748D01*
X62252D01*
Y113539D01*
X26026D01*
Y134747D01*
X27513Y136233D01*
X27957Y135970D01*
Y134902D01*
X28266Y133746D01*
X28864Y132710D01*
X29710Y131865D01*
X30746Y131266D01*
X31902Y130957D01*
X33098D01*
X34254Y131266D01*
X35290Y131865D01*
X36136Y132710D01*
X36734Y133746D01*
X37043Y134902D01*
Y136098D01*
X36734Y137254D01*
X36136Y138290D01*
X35290Y139136D01*
X34254Y139734D01*
X33098Y140043D01*
X32030D01*
X31767Y140487D01*
X32236Y140957D01*
X37043D01*
Y149500D01*
X91500D01*
X91538Y149538D01*
X92000Y149347D01*
D02*
G37*
%LPC*%
G36*
X8098Y130543D02*
X8000D01*
Y126500D01*
X12043D01*
Y126598D01*
X11734Y127754D01*
X11135Y128790D01*
X10290Y129636D01*
X9254Y130234D01*
X8098Y130543D01*
D02*
G37*
G36*
X33098Y130043D02*
X33000D01*
Y126000D01*
X37043D01*
Y126098D01*
X36734Y127254D01*
X36136Y128290D01*
X35290Y129136D01*
X34254Y129734D01*
X33098Y130043D01*
D02*
G37*
G36*
X32000D02*
X31902D01*
X30746Y129734D01*
X29710Y129136D01*
X28864Y128290D01*
X28266Y127254D01*
X27957Y126098D01*
Y126000D01*
X32000D01*
Y130043D01*
D02*
G37*
G36*
X12043Y125500D02*
X8000D01*
Y121457D01*
X8098D01*
X9254Y121766D01*
X10290Y122364D01*
X11135Y123210D01*
X11734Y124246D01*
X12043Y125402D01*
Y125500D01*
D02*
G37*
G36*
X37043Y125000D02*
X33000D01*
Y120957D01*
X33098D01*
X34254Y121266D01*
X35290Y121864D01*
X36136Y122710D01*
X36734Y123746D01*
X37043Y124902D01*
Y125000D01*
D02*
G37*
G36*
X32000D02*
X27957D01*
Y124902D01*
X28266Y123746D01*
X28864Y122710D01*
X29710Y121864D01*
X30746Y121266D01*
X31902Y120957D01*
X32000D01*
Y125000D01*
D02*
G37*
G36*
X87059Y115748D02*
X87000D01*
Y112000D01*
X90748D01*
Y112059D01*
X90459Y113140D01*
X89899Y114108D01*
X89108Y114899D01*
X88140Y115459D01*
X87059Y115748D01*
D02*
G37*
G36*
X86000D02*
X85941D01*
X84860Y115459D01*
X83892Y114899D01*
X83101Y114108D01*
X82542Y113140D01*
X82252Y112059D01*
Y112000D01*
X86000D01*
Y115748D01*
D02*
G37*
G36*
X90748Y111000D02*
X87000D01*
Y107252D01*
X87059D01*
X88140Y107542D01*
X89108Y108101D01*
X89899Y108892D01*
X90459Y109860D01*
X90748Y110941D01*
Y111000D01*
D02*
G37*
G36*
X86000D02*
X82252D01*
Y110941D01*
X82542Y109860D01*
X83101Y108892D01*
X83892Y108101D01*
X84860Y107542D01*
X85941Y107252D01*
X86000D01*
Y111000D01*
D02*
G37*
G36*
X77059Y115748D02*
X75941D01*
X74860Y115459D01*
X73892Y114899D01*
X73101Y114108D01*
X72541Y113140D01*
X72252Y112059D01*
Y110941D01*
X72541Y109860D01*
X73101Y108892D01*
X73892Y108101D01*
X74860Y107542D01*
X75941Y107252D01*
X77059D01*
X78140Y107542D01*
X79108Y108101D01*
X79899Y108892D01*
X80458Y109860D01*
X80748Y110941D01*
Y112059D01*
X80458Y113140D01*
X79899Y114108D01*
X79108Y114899D01*
X78140Y115459D01*
X77059Y115748D01*
D02*
G37*
G36*
X4000Y98489D02*
Y95500D01*
X6989D01*
X6762Y96351D01*
X6301Y97149D01*
X5649Y97801D01*
X4851Y98261D01*
X4000Y98489D01*
D02*
G37*
G36*
X6989Y94500D02*
X4000D01*
Y91510D01*
X4851Y91738D01*
X5649Y92199D01*
X6301Y92851D01*
X6762Y93649D01*
X6989Y94500D01*
D02*
G37*
G36*
X28799Y60240D02*
X14201D01*
Y51941D01*
X28799D01*
Y60240D01*
D02*
G37*
G36*
X40504Y51549D02*
Y44780D01*
X44189D01*
Y47429D01*
X44047Y48512D01*
X43629Y49522D01*
X42963Y50389D01*
X42097Y51054D01*
X41087Y51472D01*
X40504Y51549D01*
D02*
G37*
G36*
X39504D02*
X38921Y51472D01*
X37911Y51054D01*
X37044Y50389D01*
X36379Y49522D01*
X35961Y48512D01*
X35818Y47429D01*
Y44780D01*
X39504D01*
Y51549D01*
D02*
G37*
G36*
X44189Y43780D02*
X40504D01*
Y37010D01*
X41087Y37087D01*
X42097Y37505D01*
X42963Y38170D01*
X43629Y39037D01*
X44047Y40047D01*
X44189Y41130D01*
Y43780D01*
D02*
G37*
G36*
X39504D02*
X35818D01*
Y41130D01*
X35961Y40047D01*
X36379Y39037D01*
X37044Y38170D01*
X37911Y37505D01*
X38921Y37087D01*
X39504Y37010D01*
Y43780D01*
D02*
G37*
G36*
X24650Y36654D02*
X22000D01*
Y32969D01*
X28769D01*
X28692Y33552D01*
X28274Y34561D01*
X27609Y35428D01*
X26742Y36093D01*
X25733Y36511D01*
X24650Y36654D01*
D02*
G37*
G36*
X21000D02*
X18350D01*
X17267Y36511D01*
X16258Y36093D01*
X15391Y35428D01*
X14726Y34561D01*
X14308Y33552D01*
X14231Y32969D01*
X21000D01*
Y36654D01*
D02*
G37*
G36*
X28769Y31969D02*
X22000D01*
Y28283D01*
X24650D01*
X25733Y28426D01*
X26742Y28844D01*
X27609Y29509D01*
X28274Y30376D01*
X28692Y31385D01*
X28769Y31969D01*
D02*
G37*
G36*
X21000D02*
X14231D01*
X14308Y31385D01*
X14726Y30376D01*
X15391Y29509D01*
X16258Y28844D01*
X17267Y28426D01*
X18350Y28283D01*
X21000D01*
Y31969D01*
D02*
G37*
G36*
X87247Y21027D02*
Y18105D01*
X89827D01*
X89735Y18800D01*
X89426Y19546D01*
X88935Y20187D01*
X88294Y20678D01*
X87548Y20987D01*
X87247Y21027D01*
D02*
G37*
G36*
X68153D02*
Y18105D01*
X70732D01*
X70641Y18800D01*
X70332Y19546D01*
X69840Y20187D01*
X69200Y20678D01*
X68453Y20987D01*
X68153Y21027D01*
D02*
G37*
G36*
X86247D02*
X85947Y20987D01*
X85201Y20678D01*
X84560Y20187D01*
X84068Y19546D01*
X83759Y18800D01*
X83668Y18105D01*
X86247D01*
Y21027D01*
D02*
G37*
G36*
X67153D02*
X66852Y20987D01*
X66106Y20678D01*
X65465Y20187D01*
X64974Y19546D01*
X64665Y18800D01*
X64573Y18105D01*
X67153D01*
Y21027D01*
D02*
G37*
G36*
X89827Y17106D02*
X87247D01*
Y14184D01*
X87548Y14224D01*
X88294Y14533D01*
X88935Y15024D01*
X89426Y15665D01*
X89735Y16411D01*
X89827Y17106D01*
D02*
G37*
G36*
X70732D02*
X68153D01*
Y14184D01*
X68453Y14224D01*
X69200Y14533D01*
X69840Y15024D01*
X70332Y15665D01*
X70641Y16411D01*
X70732Y17106D01*
D02*
G37*
G36*
X86247D02*
X83668D01*
X83759Y16411D01*
X84068Y15665D01*
X84560Y15024D01*
X85201Y14533D01*
X85947Y14224D01*
X86247Y14184D01*
Y17106D01*
D02*
G37*
G36*
X67153D02*
X64573D01*
X64665Y16411D01*
X64974Y15665D01*
X65465Y15024D01*
X66106Y14533D01*
X66852Y14224D01*
X67153Y14184D01*
Y17106D01*
D02*
G37*
G36*
X63871Y10697D02*
Y6295D01*
X67060D01*
Y7074D01*
X66935Y8029D01*
X66566Y8918D01*
X65980Y9683D01*
X65216Y10269D01*
X64326Y10637D01*
X63871Y10697D01*
D02*
G37*
G36*
X62871D02*
X62416Y10637D01*
X61527Y10269D01*
X60763Y9683D01*
X60176Y8918D01*
X59808Y8029D01*
X59682Y7074D01*
Y6295D01*
X62871D01*
Y10697D01*
D02*
G37*
G36*
X90529D02*
X90074Y10637D01*
X89184Y10269D01*
X88420Y9683D01*
X87834Y8918D01*
X87465Y8029D01*
X87340Y7074D01*
Y6295D01*
X90529D01*
Y10697D01*
D02*
G37*
%LPD*%
D33*
X21500Y32469D02*
D03*
D34*
Y56090D02*
D03*
D35*
X40004Y44280D02*
D03*
D44*
X23000Y108485D02*
X26015Y111500D01*
X62500D01*
X59957Y108957D02*
X62500Y111500D01*
X59957Y75043D02*
Y108957D01*
Y75043D02*
X60500Y74500D01*
D45*
X7500Y146000D02*
X13000D01*
X23000Y136000D01*
X13691Y82191D02*
X14757D01*
X23000Y90434D02*
Y108485D01*
Y136000D02*
X32500Y145500D01*
X23000Y108485D02*
Y136000D01*
X13500Y82000D02*
X13691Y82191D01*
X14757D02*
X23000Y90434D01*
D46*
X65500Y83000D02*
D03*
X32500Y145500D02*
D03*
X7500Y146000D02*
D03*
D47*
X65500Y93000D02*
D03*
X32500Y135500D02*
D03*
Y125500D02*
D03*
X7500Y136000D02*
D03*
Y126000D02*
D03*
X16000Y105000D02*
D03*
D48*
X86500Y111500D02*
D03*
X76500D02*
D03*
D49*
X66500D02*
D03*
D50*
X6000Y105000D02*
D03*
D51*
X91029Y5794D02*
D03*
X63371D02*
D03*
D52*
X86747Y17605D02*
D03*
X67653D02*
D03*
D53*
X60500Y74500D02*
D03*
X13500Y82000D02*
D03*
X3500Y95000D02*
D03*
M02*
