G04*
G04 #@! TF.GenerationSoftware,Altium Limited,Altium Designer,21.2.2 (38)*
G04*
G04 Layer_Color=65535*
%FSLAX25Y25*%
%MOIN*%
G70*
G04*
G04 #@! TF.SameCoordinates,88AEB5F1-5359-4116-BBE0-5A4BCC55C554*
G04*
G04*
G04 #@! TF.FilePolarity,Positive*
G04*
G01*
G75*
%ADD10C,0.00984*%
%ADD11C,0.00394*%
%ADD12C,0.01968*%
%ADD13C,0.00787*%
%ADD14C,0.01000*%
%ADD15C,0.00500*%
D10*
X21992Y61504D02*
G03*
X21992Y61504I-492J0D01*
G01*
X25394Y76366D02*
G03*
X25394Y76366I-492J0D01*
G01*
X80091Y62370D02*
G03*
X80091Y62370I-492J0D01*
G01*
X72574Y21149D02*
G03*
X72574Y21149I-492J0D01*
G01*
D11*
X80902Y76107D02*
G03*
X80902Y76107I-197J0D01*
G01*
X22539Y75205D02*
G03*
X22539Y75205I-197J0D01*
G01*
X27090Y68705D02*
G03*
X27090Y68705I-197J0D01*
G01*
X74902Y76209D02*
G03*
X74902Y76209I-197J0D01*
G01*
X50402Y74658D02*
G03*
X50402Y74658I-197J0D01*
G01*
D12*
X40886Y144841D02*
G03*
X40669Y144811I-216J757D01*
G01*
X15886Y145341D02*
G03*
X15669Y145311I-216J757D01*
G01*
D13*
X39610Y1760D02*
Y36504D01*
Y52055D02*
Y59240D01*
X3390D02*
X13724D01*
X29276D02*
X39610D01*
X3390Y1760D02*
Y59240D01*
Y1760D02*
X39610D01*
X76661Y70055D02*
Y70842D01*
X79299Y70055D02*
Y70842D01*
X15106Y73779D02*
X15894D01*
X15106Y71220D02*
X15894D01*
X77953Y85220D02*
X78740D01*
X77953Y87779D02*
X78740D01*
X85240Y150240D02*
X86500Y151028D01*
X87760Y150240D01*
X85240Y127701D02*
Y150240D01*
X87760Y127701D02*
Y150240D01*
X60909Y117110D02*
Y127701D01*
X92090D01*
Y117110D02*
Y127701D01*
X60909Y117110D02*
X92090D01*
X67760Y127701D02*
Y150240D01*
X65240Y127701D02*
Y150240D01*
X66500Y151028D02*
X67760Y150240D01*
X65240D02*
X66500Y151028D01*
X77760Y127701D02*
Y150240D01*
X75240Y127701D02*
Y150240D01*
X76500Y151028D02*
X77760Y150240D01*
X75240D02*
X76500Y151028D01*
X50512Y130541D02*
Y132107D01*
X39488Y130541D02*
Y132107D01*
X25512Y130541D02*
Y132107D01*
X14488Y130541D02*
Y132107D01*
X36720Y113453D02*
Y114240D01*
X39279Y113453D02*
Y114240D01*
X30220Y113453D02*
Y114240D01*
X32779Y113453D02*
Y114240D01*
X57224Y86898D02*
Y99102D01*
X22776Y86898D02*
Y99102D01*
X44637Y116961D02*
X51363D01*
X44637Y110039D02*
X51363D01*
X27606Y71161D02*
X28394D01*
X27606Y73799D02*
X28394D01*
X32157Y64661D02*
X32945D01*
X32157Y67299D02*
X32945D01*
X19260Y67279D02*
X20047D01*
X19260Y64720D02*
X20047D01*
X67279Y66953D02*
Y67740D01*
X64720Y66953D02*
Y67740D01*
X47276Y40028D02*
Y52232D01*
X81724Y40028D02*
Y52232D01*
X77953Y78720D02*
X78740D01*
X77953Y81279D02*
X78740D01*
X70661Y70157D02*
Y70945D01*
X73299Y70157D02*
Y70945D01*
X40220Y68453D02*
Y69240D01*
X42779Y68453D02*
Y69240D01*
X46161Y68606D02*
Y69394D01*
X48799Y68606D02*
Y69394D01*
X62436Y11200D02*
Y17015D01*
X64015D01*
X90385D02*
X91964D01*
Y11200D02*
Y17015D01*
Y-5032D02*
Y389D01*
X62436Y-5032D02*
X91964D01*
X62436D02*
Y389D01*
D14*
X70421Y78500D02*
Y97500D01*
X60579D02*
X70421D01*
X60579Y78500D02*
Y97500D01*
Y78500D02*
X70421D01*
X27579Y120697D02*
Y150421D01*
Y120697D02*
X37421D01*
X27579Y150421D02*
X37421D01*
Y120697D02*
Y150421D01*
X2579Y121197D02*
Y150921D01*
Y121197D02*
X12421D01*
X2579Y150921D02*
X12421D01*
Y121197D02*
Y150921D01*
X1500Y100079D02*
X20500D01*
Y109921D01*
X1500D02*
X20500D01*
X1500Y100079D02*
Y109921D01*
X56833Y150196D02*
X54500D01*
Y148447D01*
X55666Y149030D01*
X56249D01*
X56833Y148447D01*
Y147280D01*
X56249Y146697D01*
X55083D01*
X54500Y147280D01*
Y143597D02*
Y140099D01*
X56249D01*
X56833Y140682D01*
Y143014D01*
X56249Y143597D01*
X54500D01*
X56833Y136416D02*
X56249Y136999D01*
X55083D01*
X54500Y136416D01*
Y134083D01*
X55083Y133500D01*
X56249D01*
X56833Y134083D01*
Y135249D01*
X55666D01*
X67804Y106333D02*
Y104000D01*
X69553D01*
X68970Y105166D01*
Y105749D01*
X69553Y106333D01*
X70720D01*
X71303Y105749D01*
Y104583D01*
X70720Y104000D01*
X74402D02*
X77901D01*
Y105749D01*
X77318Y106333D01*
X74986D01*
X74402Y105749D01*
Y104000D01*
X81584Y106333D02*
X81001Y105749D01*
Y104583D01*
X81584Y104000D01*
X83917D01*
X84500Y104583D01*
Y105749D01*
X83917Y106333D01*
X82751D01*
Y105166D01*
X86834Y38333D02*
X86167Y38999D01*
X84834D01*
X84168Y38333D01*
Y35667D01*
X84834Y35001D01*
X86167D01*
X86834Y35667D01*
X88166Y38999D02*
X90832D01*
Y38333D01*
X88166Y35667D01*
Y35001D01*
X72668Y94499D02*
Y91167D01*
X73334Y90501D01*
X74667D01*
X75334Y91167D01*
Y94499D01*
X79332Y90501D02*
X76666D01*
X79332Y93166D01*
Y93833D01*
X78666Y94499D01*
X77333D01*
X76666Y93833D01*
X87834Y58499D02*
Y55167D01*
X88501Y54501D01*
X89834D01*
X90500Y55167D01*
Y58499D01*
X91833Y54501D02*
X93166D01*
X92499D01*
Y58499D01*
X91833Y57833D01*
X18668Y113001D02*
Y116999D01*
X20667D01*
X21334Y116333D01*
Y115000D01*
X20667Y114333D01*
X18668D01*
X20001D02*
X21334Y113001D01*
X22667Y113667D02*
X23333Y113001D01*
X24666D01*
X25332Y113667D01*
Y116333D01*
X24666Y116999D01*
X23333D01*
X22667Y116333D01*
Y115666D01*
X23333Y115000D01*
X25332D01*
X9668Y113001D02*
Y116999D01*
X11667D01*
X12333Y116333D01*
Y115000D01*
X11667Y114333D01*
X9668D01*
X11001D02*
X12333Y113001D01*
X13667Y116333D02*
X14333Y116999D01*
X15666D01*
X16332Y116333D01*
Y115666D01*
X15666Y115000D01*
X16332Y114333D01*
Y113667D01*
X15666Y113001D01*
X14333D01*
X13667Y113667D01*
Y114333D01*
X14333Y115000D01*
X13667Y115666D01*
Y116333D01*
X14333Y115000D02*
X15666D01*
X52168Y119501D02*
Y123499D01*
X54167D01*
X54834Y122833D01*
Y121500D01*
X54167Y120834D01*
X52168D01*
X53501D02*
X54834Y119501D01*
X56166Y123499D02*
X58832D01*
Y122833D01*
X56166Y120167D01*
Y119501D01*
X4168Y76501D02*
Y80499D01*
X6167D01*
X6833Y79833D01*
Y78500D01*
X6167Y77834D01*
X4168D01*
X5501D02*
X6833Y76501D01*
X10832Y80499D02*
X9499Y79833D01*
X8167Y78500D01*
Y77167D01*
X8833Y76501D01*
X10166D01*
X10832Y77167D01*
Y77834D01*
X10166Y78500D01*
X8167D01*
X1168Y70001D02*
Y73999D01*
X3167D01*
X3834Y73333D01*
Y72000D01*
X3167Y71334D01*
X1168D01*
X2501D02*
X3834Y70001D01*
X7832Y73999D02*
X5167D01*
Y72000D01*
X6499Y72666D01*
X7166D01*
X7832Y72000D01*
Y70667D01*
X7166Y70001D01*
X5833D01*
X5167Y70667D01*
X85668Y84501D02*
Y88499D01*
X87667D01*
X88334Y87833D01*
Y86500D01*
X87667Y85834D01*
X85668D01*
X87001D02*
X88334Y84501D01*
X92332D02*
X89666D01*
X92332Y87166D01*
Y87833D01*
X91666Y88499D01*
X90333D01*
X89666Y87833D01*
X85334Y77501D02*
Y81499D01*
X87334D01*
X88000Y80833D01*
Y79500D01*
X87334Y78834D01*
X85334D01*
X86667D02*
X88000Y77501D01*
X89333D02*
X90666D01*
X89999D01*
Y81499D01*
X89333Y80833D01*
X47334Y150999D02*
X46001D01*
X46667D01*
Y147667D01*
X46001Y147001D01*
X45334D01*
X44668Y147667D01*
X51332Y150999D02*
X49999Y150333D01*
X48667Y149000D01*
Y147667D01*
X49333Y147001D01*
X50666D01*
X51332Y147667D01*
Y148334D01*
X50666Y149000D01*
X48667D01*
X21334Y151499D02*
X20001D01*
X20667D01*
Y148167D01*
X20001Y147501D01*
X19334D01*
X18668Y148167D01*
X25332Y151499D02*
X22667D01*
Y149500D01*
X23999Y150166D01*
X24666D01*
X25332Y149500D01*
Y148167D01*
X24666Y147501D01*
X23333D01*
X22667Y148167D01*
X41668Y5500D02*
X44334D01*
X43001Y6833D02*
Y4167D01*
X48332Y7499D02*
X45667D01*
Y5500D01*
X46999Y6166D01*
X47666D01*
X48332Y5500D01*
Y4167D01*
X47666Y3501D01*
X46333D01*
X45667Y4167D01*
X55362Y6294D02*
X54029D01*
X54696D01*
Y2962D01*
X54029Y2295D01*
X53363D01*
X52697Y2962D01*
X56695Y5627D02*
X57362Y6294D01*
X58695D01*
X59361Y5627D01*
Y4961D01*
X58695Y4295D01*
X58028D01*
X58695D01*
X59361Y3628D01*
Y2962D01*
X58695Y2295D01*
X57362D01*
X56695Y2962D01*
X3334Y116999D02*
X2001D01*
X2667D01*
Y113667D01*
X2001Y113001D01*
X1334D01*
X668Y113667D01*
X7332Y113001D02*
X4667D01*
X7332Y115666D01*
Y116333D01*
X6666Y116999D01*
X5333D01*
X4667Y116333D01*
X84000Y94499D02*
X82667D01*
X83334D01*
Y91167D01*
X82667Y90501D01*
X82001D01*
X81334Y91167D01*
X85333Y90501D02*
X86666D01*
X85999D01*
Y94499D01*
X85333Y93833D01*
X13168Y80999D02*
Y77001D01*
X15167D01*
X15834Y77667D01*
Y80333D01*
X15167Y80999D01*
X13168D01*
X19832D02*
X17166D01*
Y79000D01*
X18499Y79666D01*
X19166D01*
X19832Y79000D01*
Y77667D01*
X19166Y77001D01*
X17833D01*
X17166Y77667D01*
X6168Y67499D02*
Y63501D01*
X8167D01*
X8833Y64167D01*
Y66833D01*
X8167Y67499D01*
X6168D01*
X12166Y63501D02*
Y67499D01*
X10166Y65500D01*
X12832D01*
X55999Y74332D02*
X52667D01*
X52001Y73665D01*
Y72332D01*
X52667Y71666D01*
X55999D01*
X55333Y67667D02*
X55999Y68334D01*
Y69666D01*
X55333Y70333D01*
X54666D01*
X54000Y69666D01*
Y68334D01*
X53333Y67667D01*
X52667D01*
X52001Y68334D01*
Y69666D01*
X52667Y70333D01*
X55999Y66334D02*
X52001D01*
Y64335D01*
X52667Y63668D01*
X53333D01*
X54000Y64335D01*
Y66334D01*
Y64335D01*
X54666Y63668D01*
X55333D01*
X55999Y64335D01*
Y66334D01*
X82168Y74499D02*
X84834D01*
X83501D01*
Y70501D01*
X86167Y73166D02*
X88832Y70501D01*
X87499Y71834D01*
X88832Y73166D01*
X86167Y70501D01*
X87168Y64001D02*
Y67999D01*
X89167D01*
X89834Y67333D01*
Y66000D01*
X89167Y65334D01*
X87168D01*
X88501D02*
X89834Y64001D01*
X91167Y66666D02*
X93832Y64001D01*
X92499Y65334D01*
X93832Y66666D01*
X91167Y64001D01*
X46834Y144333D02*
X46167Y144999D01*
X44834D01*
X44168Y144333D01*
Y141667D01*
X44834Y141001D01*
X46167D01*
X46834Y141667D01*
X50832Y144999D02*
X49499Y144333D01*
X48166Y143000D01*
Y141667D01*
X48833Y141001D01*
X50166D01*
X50832Y141667D01*
Y142333D01*
X50166Y143000D01*
X48166D01*
X21533Y144833D02*
X20867Y145499D01*
X19534D01*
X18868Y144833D01*
Y142167D01*
X19534Y141501D01*
X20867D01*
X21533Y142167D01*
X25532Y145499D02*
X22866D01*
Y143500D01*
X24199Y144167D01*
X24866D01*
X25532Y143500D01*
Y142167D01*
X24866Y141501D01*
X23533D01*
X22866Y142167D01*
X51334Y22833D02*
X50667Y23499D01*
X49334D01*
X48668Y22833D01*
Y20167D01*
X49334Y19501D01*
X50667D01*
X51334Y20167D01*
X54666Y19501D02*
Y23499D01*
X52666Y21500D01*
X55332D01*
X3567Y85234D02*
X2901Y84567D01*
Y83234D01*
X3567Y82568D01*
X6233D01*
X6899Y83234D01*
Y84567D01*
X6233Y85234D01*
X3567Y86567D02*
X2901Y87233D01*
Y88566D01*
X3567Y89232D01*
X4234D01*
X4900Y88566D01*
Y87899D01*
Y88566D01*
X5566Y89232D01*
X6233D01*
X6899Y88566D01*
Y87233D01*
X6233Y86567D01*
X2167Y93934D02*
X1501Y93267D01*
Y91934D01*
X2167Y91268D01*
X4833D01*
X5499Y91934D01*
Y93267D01*
X4833Y93934D01*
X5499Y97932D02*
Y95266D01*
X2833Y97932D01*
X2167D01*
X1501Y97266D01*
Y95933D01*
X2167Y95266D01*
X93000Y34333D02*
X92334Y34999D01*
X91001D01*
X90334Y34333D01*
Y31667D01*
X91001Y31001D01*
X92334D01*
X93000Y31667D01*
X94333Y31001D02*
X95666D01*
X94999D01*
Y34999D01*
X94333Y34333D01*
D15*
X9400Y92200D02*
Y92800D01*
X12600Y92200D02*
Y92800D01*
X15900Y92200D02*
Y92800D01*
X19100Y92200D02*
Y92800D01*
X51700Y26400D02*
X52300D01*
X51700Y29600D02*
X52300D01*
X95100Y46200D02*
Y46800D01*
X91900Y46200D02*
Y46800D01*
X88600Y46200D02*
Y46800D01*
X85400Y46200D02*
Y46800D01*
M02*
